<svg viewBox="0 0 520 180" xmlns="http://www.w3.org/2000/svg">
  <defs>
    <!-- Enhanced main gradient for NXT with more vibrant blues -->
    <linearGradient id="mainGradient" x1="0%" y1="0%" x2="100%" y2="100%">
      <stop offset="0%" style="stop-color:#2196F3;stop-opacity:1" />
      <stop offset="40%" style="stop-color:#1976D2;stop-opacity:1" />
      <stop offset="70%" style="stop-color:#1565C0;stop-opacity:1" />
      <stop offset="100%" style="stop-color:#0D47A1;stop-opacity:1" />
    </linearGradient>
    
    <!-- Refined accent gradient for HIRE with deeper blues -->
    <linearGradient id="accentGradient" x1="0%" y1="0%" x2="100%" y2="100%">
      <stop offset="0%" style="stop-color:#0D47A1;stop-opacity:1" />
      <stop offset="50%" style="stop-color:#1A237E;stop-opacity:1" />
      <stop offset="100%" style="stop-color:#263238;stop-opacity:1" />
    </linearGradient>
    
    <!-- Highlight gradient for accents -->
    <linearGradient id="highlightGradient" x1="0%" y1="0%" x2="100%" y2="100%">
      <stop offset="0%" style="stop-color:#64B5F6;stop-opacity:1" />
      <stop offset="100%" style="stop-color:#42A5F5;stop-opacity:1" />
    </linearGradient>
    
    <!-- Enhanced shadow filter -->
    <filter id="enhancedShadow" x="-20%" y="-20%" width="140%" height="140%">
      <feDropShadow dx="2" dy="2" stdDeviation="3" flood-color="#000000" flood-opacity="0.25"/>
    </filter>
    
    <!-- Glow effect for special elements -->
    <filter id="glow" x="-20%" y="-20%" width="140%" height="140%">
      <feGaussianBlur stdDeviation="2.5" result="blur"/>
      <feComposite in="SourceGraphic" in2="blur" operator="over"/>
    </filter>
  </defs>
  
  <!-- Background element with modern wave design -->
  <path d="M0 60 Q65 25 130 60 T260 75 Q325 50 390 75 T520 60 L520 180 L0 180 Z" 
        fill="url(#mainGradient)" opacity="0.08"/>
  
  <!-- Subtle grid pattern for background texture -->
  <pattern id="gridPattern" patternUnits="userSpaceOnUse" width="20" height="20" patternTransform="rotate(45)">
    <path d="M 0 0 L 0 20 M 10 0 L 10 20 M 20 0 L 20 20" stroke="#1565C0" stroke-width="0.5" opacity="0.05"/>
  </pattern>
  <rect x="0" y="0" width="520" height="180" fill="url(#gridPattern)" opacity="0.3"/>
  
  <!-- NXT Text - Enhanced with better typography and spacing -->
  <g transform="translate(0, 10)">
    <!-- N with dynamic styling -->
    <path d="M30 30 L30 100 L48 100 L48 60 L82 100 L100 100 L100 30 L82 30 L82 70 L48 30 Z" 
          fill="url(#mainGradient)" filter="url(#enhancedShadow)" 
          stroke="url(#highlightGradient)" stroke-width="1.5" stroke-opacity="0.7"/>
    
    <!-- X with dynamic styling and enhanced crossover -->
    <path d="M115 30 L135 30 L155 55 L175 30 L195 30 L165 65 L195 100 L175 100 L155 75 L135 100 L115 100 L145 65 Z" 
          fill="url(#mainGradient)" filter="url(#enhancedShadow)"
          stroke="url(#highlightGradient)" stroke-width="1.5" stroke-opacity="0.7"/>
    
    <!-- T with balanced proportions -->
    <path d="M205 30 L205 45 L225 45 L225 100 L245 100 L245 45 L265 45 L265 30 Z" 
          fill="url(#mainGradient)" filter="url(#enhancedShadow)"
          stroke="url(#highlightGradient)" stroke-width="1.5" stroke-opacity="0.7"/>
  </g>
  
  <!-- Animated connecting element between NXT and HIRE -->
  <circle cx="275" cy="65" r="5" fill="url(#highlightGradient)" filter="url(#glow)">
    <animate attributeName="r" values="4;6;4" dur="3s" repeatCount="indefinite"/>
    <animate attributeName="opacity" values="0.7;1;0.7" dur="3s" repeatCount="indefinite"/>
  </circle>
  
  <!-- HIRE Text - Refined with better typography and alignment -->
  <g transform="translate(10, 10)">
    <!-- H with dynamic styling -->
    <path d="M290 30 L290 100 L308 100 L308 70 L335 70 L335 100 L353 100 L353 30 L335 30 L335 52 L308 52 L308 30 Z" 
          fill="url(#accentGradient)" filter="url(#enhancedShadow)"/>
    
    <!-- I with elegant dot accent -->
    <circle cx="372" cy="35" r="5" fill="url(#highlightGradient)" filter="url(#glow)"/>
    <path d="M365 50 L365 100 L380 100 L380 50 Z" 
          fill="url(#accentGradient)" filter="url(#enhancedShadow)"/>
    
    <!-- R with dynamic curve -->
    <path d="M395 30 L395 100 L413 100 L413 70 L425 70 L442 100 L462 100 L442 67 
              C452 63 460 57 460 45 C460 33 450 30 430 30 Z 
              M413 45 L430 45 C437 45 442 47 442 52 C442 57 437 60 430 60 L413 60 Z" 
          fill="url(#accentGradient)" filter="url(#enhancedShadow)"/>
    
    <!-- E with modern styling -->
    <path d="M475 30 L475 100 L520 100 L520 85 L493 85 L493 70 L515 70 L515 55 L493 55 L493 45 L520 45 L520 30 Z" 
          fill="url(#accentGradient)" filter="url(#enhancedShadow)"/>
  </g>
  
  <!-- Enhanced accent line under NXT with animation -->
  <path d="M30 110 Q140 105 265 110" stroke="url(#mainGradient)" stroke-width="2.5" 
        stroke-linecap="round" fill="none" opacity="0.8">
    <animate attributeName="opacity" values="0.6;0.9;0.6" dur="4s" repeatCount="indefinite"/>
  </path>
  
  <!-- Modern tagline -->
  <text x="260" y="130" font-family="Arial, sans-serif" font-size="14" 
        text-anchor="middle" fill="url(#accentGradient)" opacity="0.9"
        font-weight="300" letter-spacing="1.2">TALENT SOLUTIONS</text>
  
  <!-- TM symbol with better placement -->
  <text x="500" y="35" font-family="Arial, sans-serif" font-size="10" 
        fill="url(#accentGradient)" opacity="0.8" font-weight="bold">™</text>
  
  <!-- Subtle decorative elements -->
  <circle cx="30" cy="30" r="2" fill="url(#highlightGradient)" opacity="0.6"/>
  <circle cx="520" cy="100" r="2" fill="url(#highlightGradient)" opacity="0.6"/>
</svg>
